<svg xmlns="http://www.w3.org/2000/svg" xmlns:xlink="http://www.w3.org/1999/xlink" width="500" zoomAndPan="magnify" viewBox="0 0 375 374.999991" height="500" preserveAspectRatio="xMidYMid meet" version="1.0"><defs><g/><clipPath id="e3ad307889"><path d="M 158 128 L 217.226562 128 L 217.226562 200.753906 L 158 200.753906 Z M 158 128 " clip-rule="nonzero"/></clipPath><clipPath id="ab81142a8a"><path d="M 178 116.753906 L 198 116.753906 L 198 131 L 178 131 Z M 178 116.753906 " clip-rule="nonzero"/></clipPath><clipPath id="785a70ae92"><path d="M 161 178 L 178 178 L 178 200.753906 L 161 200.753906 Z M 161 178 " clip-rule="nonzero"/></clipPath></defs><rect x="-37.5" width="450" fill="#ffffff" y="-37.499999" height="449.999989" fill-opacity="1"/><rect x="-37.5" width="450" fill="#ffffff" y="-37.499999" height="449.999989" fill-opacity="1"/><rect x="-37.5" width="450" fill="#ffffff" y="-37.499999" height="449.999989" fill-opacity="1"/><g clip-path="url(#e3ad307889)"><path fill="#ee4623" d="M 217.066406 189.195312 L 209.3125 143.210938 C 208.589844 138.304688 204.292969 134.609375 199.316406 134.609375 L 177.925781 134.609375 L 177.925781 136.691406 L 199.316406 136.691406 C 203.261719 136.691406 206.675781 139.625 207.253906 143.515625 L 215.003906 189.503906 C 215.347656 191.804688 214.660156 194.136719 213.140625 195.898438 C 211.617188 197.660156 209.40625 198.675781 207.070312 198.675781 L 168.136719 198.675781 C 167.839844 198.675781 167.535156 198.660156 167.238281 198.621094 C 166.625 198.558594 166.03125 198.410156 165.453125 198.210938 C 165.050781 198.804688 164.65625 199.398438 164.257812 199.984375 C 164.8125 200.21875 165.390625 200.402344 165.980469 200.523438 C 166.683594 200.683594 167.410156 200.761719 168.136719 200.761719 L 207.066406 200.761719 C 210.007812 200.761719 212.796875 199.484375 214.71875 197.261719 C 216.648438 195.035156 217.503906 192.097656 217.066406 189.195312 Z M 163.023438 196.835938 C 162.679688 196.546875 162.363281 196.238281 162.058594 195.898438 C 160.53125 194.136719 159.855469 191.804688 160.195312 189.503906 L 167.945312 137.273438 C 168.523438 133.382812 171.9375 130.445312 175.886719 130.445312 L 197.15625 130.445312 L 197.15625 128.363281 L 175.886719 128.363281 C 170.910156 128.363281 166.609375 132.058594 165.882812 136.964844 L 158.128906 189.195312 C 157.699219 192.097656 158.554688 195.035156 160.480469 197.257812 C 160.898438 197.742188 161.363281 198.1875 161.855469 198.570312 C 162.296875 198.921875 162.75 199.226562 163.238281 199.492188 L 164.417969 197.769531 C 163.921875 197.507812 163.457031 197.195312 163.023438 196.835938 Z M 163.023438 196.835938 " fill-opacity="1" fill-rule="nonzero"/></g><g clip-path="url(#ab81142a8a)"><path fill="#ee4623" d="M 197.152344 130.335938 L 178.042969 130.335938 L 178.042969 124.804688 C 178.042969 120.195312 182.917969 116.753906 187.273438 116.753906 C 196.609375 116.753906 197.148438 125.269531 197.152344 125.351562 Z M 180.132812 128.25 L 195.0625 128.25 L 195.0625 125.402344 C 195.046875 125.1875 194.597656 118.832031 187.269531 118.832031 C 183.964844 118.832031 180.132812 121.441406 180.132812 124.800781 Z M 180.132812 128.25 " fill-opacity="1" fill-rule="nonzero"/></g><g clip-path="url(#785a70ae92)"><path fill="#ee4623" d="M 177.71875 178.800781 L 174.792969 195.671875 L 171.945312 191.519531 L 167.234375 198.617188 L 165.976562 200.515625 C 165.386719 200.390625 164.808594 200.207031 164.25 199.972656 C 164.644531 199.390625 165.042969 198.792969 165.449219 198.203125 C 168.121094 194.242188 170.675781 190.457031 170.988281 190.027344 C 171.871094 188.789062 172.59375 189.777344 172.59375 189.777344 L 173.71875 191.730469 L 175.089844 182.570312 L 167.574219 187.621094 C 167.574219 187.621094 168.054688 187.59375 169.347656 187.679688 C 170.648438 187.773438 170.203125 189.285156 170.203125 189.285156 L 164.429688 197.753906 L 163.246094 199.476562 C 162.761719 199.214844 162.300781 198.910156 161.867188 198.554688 L 163.027344 196.820312 L 168.109375 189.277344 L 163.824219 187.847656 Z M 177.71875 178.800781 " fill-opacity="1" fill-rule="nonzero"/></g><path fill="#ee4623" d="M 177.101562 189.007812 L 176.867188 186.941406 C 178.230469 186.785156 179.453125 186.113281 180.308594 185.042969 C 181.160156 183.96875 181.546875 182.632812 181.390625 181.273438 C 181.238281 179.914062 180.5625 178.695312 179.488281 177.84375 C 178.417969 176.992188 177.078125 176.609375 175.710938 176.761719 C 172.902344 177.078125 170.867188 179.621094 171.1875 182.425781 L 169.113281 182.664062 C 168.898438 180.753906 169.4375 178.867188 170.636719 177.363281 C 171.839844 175.855469 173.554688 174.90625 175.476562 174.691406 C 177.394531 174.472656 179.277344 175.015625 180.789062 176.214844 C 182.296875 177.414062 183.246094 179.125 183.464844 181.039062 C 183.683594 182.949219 183.144531 184.832031 181.941406 186.335938 C 180.730469 187.839844 179.015625 188.789062 177.101562 189.007812 Z M 177.101562 189.007812 " fill-opacity="1" fill-rule="nonzero"/><g fill="#591f27" fill-opacity="1"><g transform="translate(132.961706, 235.78005)"><g><path d="M 25.292969 -10.78125 L 13.289062 -10.78125 L 13.289062 -8.710938 L 22.648438 -8.710938 C 21.933594 -6.710938 20.75 -5.085938 19.054688 -3.898438 C 17.359375 -2.679688 15.460938 -2.101562 13.390625 -2.101562 C 10.746094 -2.101562 8.507812 -3.015625 6.644531 -4.882812 C 4.8125 -6.746094 3.898438 -9.019531 3.898438 -11.628906 C 3.898438 -14.238281 4.8125 -16.476562 6.679688 -18.339844 C 8.507812 -20.171875 10.746094 -21.121094 13.390625 -21.121094 C 15.359375 -21.121094 17.15625 -20.542969 18.746094 -19.425781 C 20.375 -18.308594 21.527344 -16.847656 22.273438 -14.984375 L 24.78125 -14.984375 C 24.003906 -17.527344 22.546875 -19.5625 20.441406 -21.121094 C 18.339844 -22.679688 15.898438 -23.496094 13.152344 -23.496094 C 11.664062 -23.496094 10.203125 -23.15625 8.78125 -22.546875 C 7.324219 -21.933594 6.070312 -21.085938 4.984375 -20.003906 C 3.898438 -18.917969 3.050781 -17.664062 2.441406 -16.238281 C 1.832031 -14.78125 1.527344 -13.222656 1.527344 -11.59375 C 1.527344 -9.96875 1.832031 -8.40625 2.441406 -6.984375 C 3.050781 -5.527344 3.898438 -4.273438 4.984375 -3.1875 C 6.070312 -2.101562 7.324219 -1.253906 8.78125 -0.644531 C 10.203125 -0.0351562 11.765625 0.269531 13.390625 0.269531 C 16.171875 0.269531 18.679688 -0.609375 20.917969 -2.40625 C 23.15625 -4.238281 24.546875 -6.542969 25.054688 -9.355469 Z M 25.292969 -10.78125 "/></g></g></g><g fill="#591f27" fill-opacity="1"><g transform="translate(159.777909, 235.78005)"><g><path d="M 4.914062 0 L 4.914062 -25.425781 L 2.542969 -25.425781 L 2.542969 0 Z M 4.914062 0 "/></g></g></g><g fill="#591f27" fill-opacity="1"><g transform="translate(167.236267, 235.78005)"><g><path d="M 17.121094 -7.796875 C 17.121094 -9.832031 16.308594 -11.59375 14.746094 -13.121094 C 13.222656 -14.578125 11.390625 -15.324219 9.324219 -15.324219 C 7.152344 -15.324219 5.324219 -14.542969 3.796875 -13.019531 C 2.269531 -11.492188 1.527344 -9.664062 1.527344 -7.527344 C 1.527344 -5.355469 2.269531 -3.527344 3.796875 -2.035156 C 4.507812 -1.320312 5.324219 -0.78125 6.273438 -0.371094 C 7.222656 0.0351562 8.339844 0.238281 9.664062 0.238281 C 10.984375 0.238281 12.273438 -0.167969 13.5625 -0.984375 C 14.847656 -1.796875 15.796875 -2.949219 16.441406 -4.375 L 13.730469 -4.375 C 13.1875 -3.660156 12.542969 -3.117188 11.765625 -2.710938 C 10.984375 -2.304688 10.171875 -2.136719 9.324219 -2.136719 C 8.035156 -2.136719 6.882812 -2.542969 5.863281 -3.390625 C 4.847656 -4.203125 4.203125 -5.253906 4 -6.542969 L 17.121094 -6.542969 Z M 14.613281 -8.578125 L 4.035156 -8.578125 C 4.171875 -9.1875 4.40625 -9.765625 4.746094 -10.304688 C 5.832031 -12.070312 7.355469 -12.949219 9.324219 -12.949219 C 10.578125 -12.949219 11.695312 -12.542969 12.679688 -11.730469 C 13.695312 -10.882812 14.308594 -9.832031 14.613281 -8.578125 Z M 14.613281 -8.578125 "/></g></g></g><g fill="#591f27" fill-opacity="1"><g transform="translate(185.712667, 235.78005)"><g><path d="M 12.847656 0 L 15.222656 0 L 15.222656 -9.324219 C 15.222656 -11.050781 14.746094 -12.441406 13.867188 -13.492188 C 13.390625 -14.035156 12.847656 -14.441406 12.203125 -14.746094 C 11.527344 -15.050781 10.679688 -15.222656 9.628906 -15.222656 C 8.542969 -15.222656 7.628906 -14.917969 6.8125 -14.375 C 6.035156 -13.867188 5.390625 -13.1875 4.914062 -12.339844 L 4.914062 -14.917969 L 2.542969 -14.917969 L 2.542969 0 L 4.914062 0 L 4.914062 -6.238281 C 4.914062 -8.136719 5.253906 -9.628906 5.964844 -10.746094 C 6.375 -11.355469 6.882812 -11.867188 7.527344 -12.273438 C 8.136719 -12.644531 8.984375 -12.847656 10 -12.847656 C 11.019531 -12.847656 11.730469 -12.476562 12.171875 -11.796875 C 12.613281 -11.121094 12.847656 -10.273438 12.847656 -9.324219 Z M 12.847656 0 "/></g></g></g><g fill="#591f27" fill-opacity="1"><g transform="translate(202.968605, 235.78005)"><g><path d="M 4.914062 -16.984375 L 17.867188 1.425781 L 17.867188 -23.054688 L 15.492188 -23.054688 L 15.492188 -6.101562 L 2.542969 -24.511719 L 2.542969 0 L 4.914062 0 Z M 4.914062 -16.984375 "/></g></g></g><g fill="#591f27" fill-opacity="1"><g transform="translate(223.377396, 235.78005)"><g><path d="M 14.746094 -7.527344 C 14.746094 -6.035156 14.203125 -4.78125 13.152344 -3.730469 C 12.070312 -2.644531 10.816406 -2.136719 9.324219 -2.136719 C 7.832031 -2.136719 6.542969 -2.644531 5.492188 -3.730469 C 4.40625 -4.78125 3.898438 -6.035156 3.898438 -7.527344 C 3.898438 -9.019531 4.40625 -10.273438 5.492188 -11.355469 C 6.542969 -12.410156 7.832031 -12.949219 9.324219 -12.949219 C 10.816406 -12.949219 12.070312 -12.410156 13.152344 -11.355469 C 14.203125 -10.273438 14.746094 -9.019531 14.746094 -7.527344 Z M 17.121094 -7.527344 C 17.121094 -9.664062 16.339844 -11.492188 14.816406 -13.019531 C 13.289062 -14.542969 11.457031 -15.324219 9.324219 -15.324219 C 7.152344 -15.324219 5.324219 -14.542969 3.796875 -13.019531 C 2.269531 -11.492188 1.527344 -9.664062 1.527344 -7.527344 C 1.527344 -5.355469 2.269531 -3.527344 3.796875 -2.035156 C 5.324219 -0.507812 7.1875 0.238281 9.324219 0.238281 C 11.425781 0.238281 13.289062 -0.507812 14.816406 -2.035156 C 16.339844 -3.527344 17.121094 -5.355469 17.121094 -7.527344 Z M 17.121094 -7.527344 "/></g></g></g><g fill="#ee4623" fill-opacity="1"><g transform="translate(128.204188, 254.971163)"><g><path d="M 7.308594 -3.707031 C 7.308594 -2.863281 7.003906 -2.148438 6.417969 -1.5625 C 5.824219 -0.964844 5.109375 -0.671875 4.273438 -0.671875 C 3.4375 -0.671875 2.722656 -0.964844 2.136719 -1.5625 C 1.539062 -2.148438 1.246094 -2.863281 1.246094 -3.707031 C 1.246094 -4.53125 1.539062 -5.25 2.136719 -5.84375 C 2.722656 -6.429688 3.4375 -6.734375 4.273438 -6.734375 C 5.109375 -6.734375 5.824219 -6.429688 6.417969 -5.84375 C 7.003906 -5.25 7.308594 -4.53125 7.308594 -3.707031 Z M 8.066406 -3.707031 C 8.066406 -4.230469 7.960938 -4.71875 7.765625 -5.183594 C 7.570312 -5.640625 7.296875 -6.039062 6.949219 -6.386719 C 6.605469 -6.722656 6.203125 -6.996094 5.746094 -7.191406 C 5.28125 -7.386719 4.792969 -7.492188 4.273438 -7.492188 C 3.753906 -7.492188 3.253906 -7.386719 2.796875 -7.191406 C 2.34375 -6.996094 1.941406 -6.722656 1.59375 -6.386719 C 1.246094 -6.039062 0.976562 -5.640625 0.78125 -5.183594 C 0.585938 -4.71875 0.488281 -4.230469 0.488281 -3.707031 C 0.488281 -3.1875 0.585938 -2.6875 0.78125 -2.234375 C 0.976562 -1.769531 1.246094 -1.367188 1.59375 -1.019531 C 1.941406 -0.671875 2.34375 -0.402344 2.796875 -0.207031 C 3.253906 -0.0117188 3.753906 0.0859375 4.273438 0.0859375 C 4.792969 0.0859375 5.28125 -0.0117188 5.746094 -0.207031 C 6.203125 -0.402344 6.605469 -0.671875 6.949219 -1.019531 C 7.296875 -1.367188 7.570312 -1.769531 7.765625 -2.234375 C 7.960938 -2.6875 8.066406 -3.1875 8.066406 -3.707031 Z M 8.066406 -3.707031 "/></g></g></g><g fill="#ee4623" fill-opacity="1"><g transform="translate(142.179764, 254.971163)"><g><path d="M 1.574219 -5.433594 L 5.714844 0.457031 L 5.714844 -7.375 L 4.957031 -7.375 L 4.957031 -1.953125 L 0.8125 -7.839844 L 0.8125 0 L 1.574219 0 Z M 1.574219 -5.433594 "/></g></g></g><g fill="#ee4623" fill-opacity="1"><g transform="translate(154.128806, 254.971163)"><g><path d="M 1.574219 -0.757812 L 1.574219 -7.375 L 0.8125 -7.375 L 0.8125 0 L 4.207031 0 L 4.207031 -0.757812 Z M 1.574219 -0.757812 "/></g></g></g><g fill="#ee4623" fill-opacity="1"><g transform="translate(163.975464, 254.971163)"><g><path d="M 1.574219 0 L 1.574219 -7.375 L 0.8125 -7.375 L 0.8125 0 Z M 1.574219 0 "/></g></g></g><g fill="#ee4623" fill-opacity="1"><g transform="translate(171.784748, 254.971163)"><g><path d="M 1.574219 -5.433594 L 5.714844 0.457031 L 5.714844 -7.375 L 4.957031 -7.375 L 4.957031 -1.953125 L 0.8125 -7.839844 L 0.8125 0 L 1.574219 0 Z M 1.574219 -5.433594 "/></g></g></g><g fill="#ee4623" fill-opacity="1"><g transform="translate(183.733788, 254.971163)"><g><path d="M 5.195312 0 L 5.195312 -0.703125 L 1.574219 -0.703125 L 1.574219 -3.328125 L 5.085938 -3.328125 L 5.085938 -4.042969 L 1.574219 -4.042969 L 1.574219 -6.667969 L 5.195312 -6.667969 L 5.195312 -7.375 L 0.8125 -7.375 L 0.8125 0 Z M 5.195312 0 "/></g></g></g><g fill="#ee4623" fill-opacity="1"><g transform="translate(195.162646, 254.971163)"><g/></g></g><g fill="#ee4623" fill-opacity="1"><g transform="translate(203.513784, 254.971163)"><g><path d="M 2.851562 -3.46875 C 3.804688 -3.242188 4.457031 -2.992188 4.804688 -2.710938 C 5.042969 -2.515625 5.160156 -2.265625 5.160156 -1.960938 C 5.160156 -1.660156 5.097656 -1.410156 4.964844 -1.234375 C 4.640625 -0.78125 4.054688 -0.554688 3.230469 -0.554688 C 2.082031 -0.554688 1.429688 -0.945312 1.289062 -1.722656 L 0.402344 -1.722656 C 0.660156 -0.476562 1.605469 0.140625 3.230469 0.140625 C 3.957031 0.140625 4.566406 -0.0117188 5.054688 -0.335938 C 5.640625 -0.714844 5.941406 -1.28125 5.941406 -2.015625 C 5.941406 -2.625 5.703125 -3.089844 5.226562 -3.414062 C 4.890625 -3.65625 4.347656 -3.871094 3.601562 -4.066406 C 2.839844 -4.261719 2.351562 -4.425781 2.125 -4.542969 C 1.625 -4.792969 1.378906 -5.140625 1.386719 -5.59375 C 1.386719 -5.835938 1.429688 -6.039062 1.539062 -6.191406 C 1.820312 -6.613281 2.320312 -6.832031 3.035156 -6.832031 C 4.042969 -6.832031 4.621094 -6.507812 4.769531 -5.878906 L 5.59375 -5.878906 C 5.324219 -6.941406 4.46875 -7.484375 3.035156 -7.484375 C 2.386719 -7.484375 1.8125 -7.308594 1.332031 -6.960938 C 0.847656 -6.613281 0.597656 -6.105469 0.597656 -5.410156 C 0.597656 -4.46875 1.355469 -3.816406 2.851562 -3.46875 Z M 2.851562 -3.46875 "/></g></g></g><g fill="#ee4623" fill-opacity="1"><g transform="translate(215.159389, 254.971163)"><g><path d="M 1.574219 0 L 1.574219 -3.296875 L 4.921875 -3.296875 L 4.921875 0 L 5.683594 0 L 5.683594 -7.375 L 4.921875 -7.375 L 4.921875 -4.054688 L 1.574219 -4.054688 L 1.574219 -7.375 L 0.8125 -7.375 L 0.8125 0 Z M 1.574219 0 "/></g></g></g><g fill="#ee4623" fill-opacity="1"><g transform="translate(227.075922, 254.971163)"><g><path d="M 7.308594 -3.707031 C 7.308594 -2.863281 7.003906 -2.148438 6.417969 -1.5625 C 5.824219 -0.964844 5.109375 -0.671875 4.273438 -0.671875 C 3.4375 -0.671875 2.722656 -0.964844 2.136719 -1.5625 C 1.539062 -2.148438 1.246094 -2.863281 1.246094 -3.707031 C 1.246094 -4.53125 1.539062 -5.25 2.136719 -5.84375 C 2.722656 -6.429688 3.4375 -6.734375 4.273438 -6.734375 C 5.109375 -6.734375 5.824219 -6.429688 6.417969 -5.84375 C 7.003906 -5.25 7.308594 -4.53125 7.308594 -3.707031 Z M 8.066406 -3.707031 C 8.066406 -4.230469 7.960938 -4.71875 7.765625 -5.183594 C 7.570312 -5.640625 7.296875 -6.039062 6.949219 -6.386719 C 6.605469 -6.722656 6.203125 -6.996094 5.746094 -7.191406 C 5.28125 -7.386719 4.792969 -7.492188 4.273438 -7.492188 C 3.753906 -7.492188 3.253906 -7.386719 2.796875 -7.191406 C 2.34375 -6.996094 1.941406 -6.722656 1.59375 -6.386719 C 1.246094 -6.039062 0.976562 -5.640625 0.78125 -5.183594 C 0.585938 -4.71875 0.488281 -4.230469 0.488281 -3.707031 C 0.488281 -3.1875 0.585938 -2.6875 0.78125 -2.234375 C 0.976562 -1.769531 1.246094 -1.367188 1.59375 -1.019531 C 1.941406 -0.671875 2.34375 -0.402344 2.796875 -0.207031 C 3.253906 -0.0117188 3.753906 0.0859375 4.273438 0.0859375 C 4.792969 0.0859375 5.28125 -0.0117188 5.746094 -0.207031 C 6.203125 -0.402344 6.605469 -0.671875 6.949219 -1.019531 C 7.296875 -1.367188 7.570312 -1.769531 7.765625 -2.234375 C 7.960938 -2.6875 8.066406 -3.1875 8.066406 -3.707031 Z M 8.066406 -3.707031 "/></g></g></g><g fill="#ee4623" fill-opacity="1"><g transform="translate(241.051503, 254.971163)"><g><path d="M 1.574219 -3.65625 L 1.574219 -6.648438 L 3.285156 -6.648438 C 3.730469 -6.648438 4.089844 -6.507812 4.359375 -6.234375 C 4.621094 -5.953125 4.761719 -5.605469 4.761719 -5.171875 C 4.761719 -4.726562 4.621094 -4.371094 4.335938 -4.078125 C 4.054688 -3.796875 3.707031 -3.65625 3.285156 -3.65625 Z M 5.519531 -5.152344 C 5.519531 -5.800781 5.28125 -6.332031 4.824219 -6.757812 C 4.371094 -7.167969 3.828125 -7.375 3.175781 -7.375 L 0.8125 -7.375 L 0.8125 0 L 1.574219 0 L 1.574219 -2.917969 L 3.175781 -2.917969 C 3.828125 -2.917969 4.382812 -3.125 4.824219 -3.535156 C 5.28125 -3.96875 5.519531 -4.5 5.519531 -5.152344 Z M 5.519531 -5.152344 "/></g></g></g></svg>